<svg width="12" height="11" viewBox="0 0 12 11" fill="none" xmlns="http://www.w3.org/2000/svg">
<path d="M7.196 8.236C8.176 8.236 9.002 7.84867 9.674 7.074L11.116 8.418C10.6493 8.98733 10.0707 9.42133 9.38 9.72C8.69867 10.0187 7.93333 10.168 7.084 10.168C6.272 10.168 5.516 10.0233 4.816 9.734C4.12533 9.44467 3.53733 9.034 3.052 8.502C2.56667 7.97 2.21667 7.354 2.002 6.654H0.42V5.478H1.792C1.78267 5.394 1.778 5.268 1.778 5.1C1.778 4.932 1.78267 4.806 1.792 4.722H0.42V3.546H2.002C2.21667 2.846 2.56667 2.23 3.052 1.698C3.53733 1.166 4.12533 0.755333 4.816 0.465999C5.516 0.176666 6.272 0.0319998 7.084 0.0319998C7.93333 0.0319998 8.69867 0.181333 9.38 0.48C10.0707 0.778667 10.6493 1.208 11.116 1.768L9.674 3.112C8.99267 2.34667 8.16667 1.964 7.196 1.964C6.58 1.964 6.02933 2.104 5.544 2.384C5.05867 2.664 4.68533 3.05133 4.424 3.546H7.966V4.722H4.074C4.06467 4.806 4.06 4.932 4.06 5.1C4.06 5.268 4.06467 5.394 4.074 5.478H7.966V6.654H4.424C4.68533 7.14867 5.05867 7.536 5.544 7.816C6.02933 8.096 6.58 8.236 7.196 8.236Z" fill="#8C9099"/>
</svg>
