<svg width="14" height="14" viewBox="0 0 14 14" fill="none" xmlns="http://www.w3.org/2000/svg">
<path d="M11.376 0.957999H10.008L1.872 13.18H3.276L11.376 0.957999ZM1.89 8.14H3.204V1.138L0.702 2.38V3.568L1.89 3.028V8.14ZM8.91 12.316V13H13.338V11.74H11.034C11.916 10.768 11.898 10.714 12.708 9.814C13.14 9.328 13.446 8.752 13.446 8.05C13.446 6.826 12.438 5.962 11.214 5.962C9.99 5.962 9.09 6.736 8.874 8.014L10.08 8.248C10.17 7.618 10.602 7.222 11.16 7.222C11.754 7.222 12.132 7.564 12.132 8.05C12.132 8.356 11.97 8.662 11.736 8.95L8.91 12.316Z" fill="white"/>
</svg>
