<svg width="16" height="16" viewBox="0 0 16 16" fill="none" xmlns="http://www.w3.org/2000/svg">
<g clip-path="url(#clip0_19618_72446)">
<path d="M13.413 1.38899C13.3931 1.30086 13.3496 1.2198 13.2872 1.15441C13.2248 1.08903 13.1459 1.04177 13.0588 1.01766C12.9717 0.993558 12.8797 0.993505 12.7926 1.01751C12.7055 1.04151 12.6265 1.08868 12.564 1.15399L12.076 1.71299C10.7612 0.862677 9.21307 0.44557 7.64903 0.52025C6.08499 0.59493 4.58363 1.15765 3.35581 2.12937C2.12798 3.10109 1.23537 4.433 0.803346 5.93804C0.371318 7.44308 0.421573 9.04564 0.947052 10.5207C1.47253 11.9957 2.44684 13.269 3.73313 14.1619C5.01943 15.0548 6.5531 15.5223 8.11874 15.4989C9.68439 15.4754 11.2034 14.9621 12.4623 14.0311C13.7213 13.1001 14.657 11.7981 15.138 10.308C15.2045 10.0604 15.1733 9.79679 15.051 9.57154C14.9286 9.3463 14.7244 9.17663 14.4806 9.09758C14.2368 9.01852 13.9719 9.03612 13.7407 9.14674C13.5094 9.25735 13.3295 9.45254 13.238 9.69199C12.8915 10.7746 12.2187 11.7236 11.3119 12.4091C10.4051 13.0945 9.30854 13.4829 8.17245 13.521C7.03636 13.5592 5.91625 13.2452 4.96552 12.6221C4.01479 11.9989 3.27991 11.0972 2.86153 10.0402C2.44315 8.9833 2.36171 7.82287 2.62837 6.71786C2.89503 5.61285 3.49675 4.61728 4.35113 3.86749C5.20551 3.11769 6.27079 2.65034 7.40107 2.52941C8.53135 2.40849 9.67138 2.63991 10.665 3.19199L10.065 3.87199C10.0028 3.93707 9.95929 4.01775 9.9391 4.1055C9.91891 4.19326 9.9228 4.28484 9.95036 4.37058C9.97791 4.45631 10.0281 4.53301 10.0956 4.59257C10.1632 4.65214 10.2455 4.69236 10.334 4.70899L13.158 4.79999C13.1883 4.80596 13.2192 4.80897 13.25 4.80899C13.3252 4.80895 13.3994 4.79196 13.4671 4.7593C13.5347 4.72663 13.5942 4.67913 13.641 4.62032C13.6878 4.56152 13.7207 4.49292 13.7374 4.41962C13.754 4.34633 13.7539 4.27024 13.737 4.19699L13.413 1.38899Z" fill="#8C9099"/>
<path d="M10.5 7H9V5.5C9 5.23478 8.89464 4.98043 8.70711 4.79289C8.51957 4.60536 8.26522 4.5 8 4.5C7.73478 4.5 7.48043 4.60536 7.29289 4.79289C7.10536 4.98043 7 5.23478 7 5.5V8C7 8.26522 7.10536 8.51957 7.29289 8.70711C7.48043 8.89464 7.73478 9 8 9H10.5C10.7652 9 11.0196 8.89464 11.2071 8.70711C11.3946 8.51957 11.5 8.26522 11.5 8C11.5 7.73478 11.3946 7.48043 11.2071 7.29289C11.0196 7.10536 10.7652 7 10.5 7Z" fill="#8C9099"/>
</g>
<defs>
<clipPath id="clip0_19618_72446">
<rect width="16" height="16" fill="white"/>
</clipPath>
</defs>
</svg>
