<svg width="12" height="12" viewBox="0 0 12 12" fill="none" xmlns="http://www.w3.org/2000/svg">
<path d="M10.7066 1.29303C10.5191 1.10556 10.2648 1.00024 9.99959 1.00024C9.73443 1.00024 9.48012 1.10556 9.29259 1.29303L5.99959 4.58603L2.70659 1.29303C2.51799 1.11087 2.26539 1.01008 2.00319 1.01236C1.74099 1.01464 1.49018 1.1198 1.30477 1.30521C1.11937 1.49062 1.0142 1.74143 1.01192 2.00363C1.00964 2.26583 1.11043 2.51843 1.29259 2.70703L4.58559 6.00003L1.29259 9.29303C1.19708 9.38528 1.1209 9.49562 1.06849 9.61763C1.01608 9.73963 0.988496 9.87085 0.987342 10.0036C0.986189 10.1364 1.01149 10.2681 1.06177 10.391C1.11205 10.5139 1.18631 10.6255 1.2802 10.7194C1.37409 10.8133 1.48574 10.8876 1.60864 10.9379C1.73154 10.9881 1.86321 11.0134 1.99599 11.0123C2.12877 11.0111 2.25999 10.9835 2.382 10.9311C2.504 10.8787 2.61435 10.8025 2.70659 10.707L5.99959 7.41403L9.29259 10.707C9.4812 10.8892 9.7338 10.99 9.99599 10.9877C10.2582 10.9854 10.509 10.8803 10.6944 10.6948C10.8798 10.5094 10.985 10.2586 10.9873 9.99643C10.9895 9.73423 10.8888 9.48163 10.7066 9.29303L7.41359 6.00003L10.7066 2.70703C10.8941 2.5195 10.9994 2.26519 10.9994 2.00003C10.9994 1.73487 10.8941 1.48056 10.7066 1.29303Z" fill="#1EE86F" fill-opacity="0.8"/>
</svg>
