<svg width="16" height="16" viewBox="0 0 16 16" fill="none" xmlns="http://www.w3.org/2000/svg">
<path d="M12.8 12.2C12.4 11.8 12.4 11.2 12.8 10.8C14.4 9.19999 14.4 6.69999 12.8 5.09999C12.4 4.69999 12.4 4.09999 12.8 3.69999C13.2 3.29999 13.8 3.29999 14.2 3.69999C16.5 5.99999 16.5 9.79999 14.2 12.2C13.9 12.6 13.2 12.6 12.8 12.2Z" fill="#8C9099"/>
<path d="M11 1.00019C11 0.200191 10.1 -0.299809 9.4 0.200191L3.7 4.00019H1C0.4 4.00019 0 4.40019 0 5.00019V11.0002C0 11.6002 0.4 12.0002 1 12.0002H3.7L9.4 15.8002C10.1 16.2002 11 15.8002 11 15.0002V1.00019Z" fill="#8C9099"/>
</svg>
