<svg width="388" height="224" viewBox="0 0 388 224" fill="none" xmlns="http://www.w3.org/2000/svg">
<path fill-rule="evenodd" clip-rule="evenodd" d="M4.03467 43.0128C4.03467 40.5155 4.59906 38.0426 5.69559 35.7354C6.79211 33.4282 8.39932 31.3319 10.4253 29.5663C12.4513 27.8007 14.8564 26.4004 17.5034 25.4453C20.1503 24.4902 22.9872 23.9991 25.8518 24L194.166 24L278.323 24L362.48 24C368.264 24 373.811 26.0031 377.901 29.5687C381.991 33.1343 384.289 37.9703 384.289 43.0128V236.989C384.289 242.031 381.991 246.867 377.901 250.432C373.811 253.997 368.264 256 362.48 256L25.8518 256C22.9873 256.001 20.1506 255.51 17.5038 254.555C14.857 253.6 12.452 252.2 10.426 250.434C8.40002 248.669 6.79285 246.573 5.69623 244.266C4.59961 241.959 4.03494 239.486 4.03467 236.989V43.0128Z" fill="url(#paint0_radial_19618_72513)"/>
<path d="M161.378 3.5C159.455 3.5 157.896 4.84685 157.896 6.50828V23.3755L26.0831 23.3756C23.1879 23.3747 20.321 23.8677 17.646 24.8264C14.971 25.7852 12.5404 27.1909 10.4929 28.9633C8.44536 30.7357 6.8211 32.8401 5.71295 35.1562C4.6048 37.4723 4.03442 39.9547 4.03442 42.4617V320.416C4.03467 322.922 4.60533 325.405 5.71359 327.721C6.82185 330.036 8.44611 332.141 10.4936 333.913C12.5411 335.685 14.9715 337.091 17.6464 338.049C20.3213 339.008 23.1881 339.501 26.0831 339.5L366.283 339.5C372.128 339.5 377.734 337.489 381.867 333.91C386 330.331 388.323 325.477 388.323 320.415V42.4617C388.323 37.3997 384.793 32 381.767 28C377.733 25 373.194 20 363.108 20L230.239 23.3755V6.50828C230.239 4.84685 228.68 3.5 226.757 3.5H161.378Z" fill="url(#paint1_radial_19618_72513)"/>
<path fill-rule="evenodd" clip-rule="evenodd" d="M0 236.975V42.8421C0 39.8188 0.680724 36.8248 2.00354 34.0312C3.32637 31.2376 5.26556 28.6987 7.71079 26.56C10.156 24.4212 13.0593 22.7243 16.2555 21.5669C19.4511 20.4096 22.8762 19.8142 26.3354 19.8151H26.337L153.848 19.8151V6.99799C153.848 3.13311 157.437 0 161.865 0H226.372C230.799 0 234.388 3.1331 234.388 6.99799V19.8151H361.996C368.982 19.8151 375.68 22.2435 380.616 26.5629C385.552 30.882 388.323 36.738 388.323 42.8421V236.975C388.323 243.079 385.551 248.934 380.615 253.253C375.679 257.572 368.981 260 361.996 260L26.337 260H26.3354C22.8765 260.001 19.4514 259.406 16.256 258.249C13.06 257.091 10.1568 255.394 7.71163 253.256C5.26641 251.117 3.32722 248.579 2.00428 245.785C0.681376 242.992 0.000295981 239.998 0 236.975ZM26.3354 256.001L361.996 256.001C367.763 256.001 373.294 253.997 377.372 250.428C381.451 246.86 383.742 242.021 383.743 236.975V42.8421C383.743 37.7955 381.451 32.9556 377.373 29.3872C373.295 25.8187 367.763 23.814 361.996 23.814H229.807V6.99799C229.807 5.34161 228.269 3.99885 226.372 3.99885H161.865C159.967 3.99885 158.429 5.34161 158.429 6.99799V23.814L26.3354 23.814C23.4789 23.8131 20.6502 24.3046 18.0109 25.2604C15.3716 26.2163 12.9734 27.6178 10.9532 29.3848C8.93302 31.1518 7.33043 33.2498 6.23706 35.5588C5.1437 37.8679 4.58094 40.3427 4.58094 42.8421V236.975C4.58118 239.474 5.14422 241.949 6.23769 244.258C7.33117 246.566 8.93375 248.664 10.9539 250.431C12.9741 252.198 15.3721 253.599 18.0113 254.555C20.6505 255.511 23.4791 256.002 26.3354 256.001Z" fill="url(#paint2_linear_19618_72513)"/>
<defs>
<radialGradient id="paint0_radial_19618_72513" cx="0" cy="0" r="1" gradientUnits="userSpaceOnUse" gradientTransform="translate(197.987 451.001) rotate(-90.0924) scale(390.875 171.679)">
<stop stop-color="#43AC4D"/>
<stop offset="1" stop-color="#1E423B"/>
</radialGradient>
<radialGradient id="paint1_radial_19618_72513" cx="0" cy="0" r="1" gradientUnits="userSpaceOnUse" gradientTransform="translate(225.732 628.795) rotate(-92.0986) scale(616.098 250.915)">
<stop stop-color="#43AC4D"/>
<stop offset="1" stop-color="#1E423B"/>
</radialGradient>
<linearGradient id="paint2_linear_19618_72513" x1="204.5" y1="-180.5" x2="216.49" y2="168.995" gradientUnits="userSpaceOnUse">
<stop stop-color="#5DC7D6" stop-opacity="0"/>
<stop stop-color="#2BFF80" stop-opacity="0"/>
<stop offset="0.615335" stop-color="#1EE86F"/>
<stop offset="1" stop-color="#2BFF80" stop-opacity="0"/>
</linearGradient>
</defs>
</svg>
