<svg width="848" height="105" viewBox="0 0 848 105" fill="none" xmlns="http://www.w3.org/2000/svg">
<path d="M236.505 1H130.965C105.03 1 84.0046 22.0426 84.0046 48V128.371H357.005L236.505 1Z" fill="url(#paint0_linear_20302_1299)"/>
<path d="M603 1H707.539C733.475 1 754.5 22.0426 754.5 48V128.371H475L603 1Z" fill="url(#paint1_linear_20302_1299)"/>
<path d="M609.382 1H775.813C830 1 848 21.9814 848 47.8632V128H476L609.382 1Z" fill="url(#paint2_radial_20302_1299)"/>
<path d="M229.001 1H69.2812C13.0046 1 0.00463867 21.9814 0.00463867 47.8632V128H357.005L229.001 1Z" fill="url(#paint3_radial_20302_1299)"/>
<path d="M383.947 3C379.28 3 375.497 5.69277 375.497 9.01447V22.4462L52.6868 22.4466C49.1833 22.4457 45.7138 22.9385 42.4767 23.8969C39.2395 24.8554 36.2981 26.2606 33.8203 28.0324C31.3425 29.8042 29.3769 31.9078 28.0359 34.2231C26.6949 36.5384 26.0046 39.0199 26.0046 41.5261V127.922C26.005 130.428 26.6955 132.91 28.0367 135.225C29.3778 137.54 31.3434 139.643 33.8212 141.415C36.2989 143.186 39.2402 144.591 42.4772 145.55C45.7142 146.508 49.1835 147.001 52.6868 147H795.332C802.406 147 809.19 144.99 814.192 141.412C819.194 137.835 822.004 132.982 822.005 127.922V41.5261C822.005 36.4659 819.195 31.613 814.192 28.0348C809.19 24.4568 802.406 22.4466 795.332 22.4466H463.356V9.01447C463.356 5.69277 459.573 3 454.906 3H383.947Z" fill="url(#paint4_radial_20302_1299)"/>
<path fill-rule="evenodd" clip-rule="evenodd" d="M26.9825 128.916V42.5303C26.9825 40.0245 27.6537 37.5433 28.9577 35.2283C30.2617 32.9133 32.1732 30.8099 34.5826 29.0384C36.9921 27.2668 39.8523 25.8617 43.0002 24.9034C46.1481 23.9451 49.5218 23.4523 52.9287 23.4533L378.074 23.4529V10.0228C378.074 6.70157 381.753 4.00914 386.291 4.00914H455.12C459.658 4.00914 463.336 6.70157 463.336 10.0228V23.4533H796.09C802.969 23.4533 809.566 25.4632 814.43 29.0408C819.294 32.6185 822.027 37.4708 822.027 42.5303V128.916C822.026 133.975 819.293 138.827 814.429 142.404C809.565 145.981 802.969 147.991 796.09 147.991H52.9287C49.522 147.992 46.1484 147.499 43.0007 146.541C39.853 145.583 36.9929 144.178 34.5835 142.406C32.174 140.635 30.2626 138.532 28.9585 136.217C27.6543 133.902 26.9828 131.421 26.9825 128.916ZM52.9307 152H52.9287C48.7994 152.001 44.7109 151.404 40.897 150.243C37.0824 149.081 33.6182 147.379 30.7013 145.235C27.7843 143.09 25.4717 140.545 23.8942 137.745C22.3169 134.946 21.505 131.945 21.5046 128.916V42.5303C21.5046 39.5006 22.3161 36.5002 23.8933 33.7002C25.4707 30.9001 27.7833 28.3547 30.7003 26.21C33.6173 24.0652 37.0817 22.3631 40.8964 21.2018C44.7105 20.0406 48.7991 19.4432 52.9286 19.4441H52.9307L372.597 19.4438V10.0228C372.597 4.48739 378.728 0 386.291 0H455.12C462.683 0 468.814 4.48739 468.814 10.0228V19.4441H796.09C804.43 19.4441 812.424 21.8813 818.313 26.213C824.201 30.544 827.505 36.4139 827.505 42.5303V128.916C827.504 135.032 824.2 140.901 818.312 145.232C812.423 149.563 804.43 152 796.09 152H52.9307Z" fill="url(#paint5_linear_20302_1299)"/>
<defs>
<linearGradient id="paint0_linear_20302_1299" x1="183.507" y1="-62.5849" x2="181.642" y2="82.6796" gradientUnits="userSpaceOnUse">
<stop stop-color="#5DC7D6" stop-opacity="0"/>
<stop stop-color="#2BFF80" stop-opacity="0"/>
<stop offset="0.473958" stop-color="#1EE86F"/>
<stop offset="1" stop-color="#2BFF80" stop-opacity="0"/>
</linearGradient>
<linearGradient id="paint1_linear_20302_1299" x1="654.998" y1="-62.5849" x2="656.863" y2="82.6796" gradientUnits="userSpaceOnUse">
<stop stop-color="#5DC7D6" stop-opacity="0"/>
<stop stop-color="#2BFF80" stop-opacity="0"/>
<stop offset="0.473958" stop-color="#1EE86F"/>
<stop offset="1" stop-color="#2BFF80" stop-opacity="0"/>
</linearGradient>
<radialGradient id="paint2_radial_20302_1299" cx="0" cy="0" r="1" gradientUnits="userSpaceOnUse" gradientTransform="translate(1009.91 -101.442) rotate(147.535) scale(260.737 120.371)">
<stop stop-color="#43AC4D"/>
<stop offset="1" stop-color="#1A3934"/>
</radialGradient>
<radialGradient id="paint3_radial_20302_1299" cx="0" cy="0" r="1" gradientUnits="userSpaceOnUse" gradientTransform="translate(-155.373 -101.442) rotate(33.5418) scale(253.297 118.91)">
<stop stop-color="#43AC4D"/>
<stop offset="1" stop-color="#1A3934"/>
</radialGradient>
<radialGradient id="paint4_radial_20302_1299" cx="0" cy="0" r="1" gradientUnits="userSpaceOnUse" gradientTransform="translate(438.488 218.658) rotate(-90) scale(210.219 311.398)">
<stop stop-color="#43AC4D"/>
<stop offset="1" stop-color="#1E423B"/>
</radialGradient>
<linearGradient id="paint5_linear_20302_1299" x1="499.239" y1="-75.8803" x2="500.058" y2="97.4985" gradientUnits="userSpaceOnUse">
<stop stop-color="#5DC7D6" stop-opacity="0"/>
<stop stop-color="#2BFF80" stop-opacity="0"/>
<stop offset="0.473958" stop-color="#1EE86F"/>
<stop offset="1" stop-color="#2BFF80" stop-opacity="0"/>
</linearGradient>
</defs>
</svg>
